<?xml version="1.0" encoding="UTF-8"?>
<svg version="1.1" viewBox="0 0 52.917 52.917" xmlns="http://www.w3.org/2000/svg">
 <defs>
  <linearGradient id="gradient" x2="1" gradientTransform="matrix(116.62 81.661 81.661 -116.62 -.82661 516.29)" gradientUnits="userSpaceOnUse">
   <stop stop-color="#aa8600" offset="0"/>
   <stop stop-color="#f3c460" offset=".15"/>
   <stop stop-color="#ffd66c" offset=".36"/>
   <stop stop-color="#aa8600" offset=".55"/>
   <stop stop-color="#f8cf62" offset=".7"/>
   <stop stop-color="#ffd66c" offset=".85"/>
   <stop stop-color="#f3c460" offset="1"/>
  </linearGradient>
 </defs>
 <g transform="matrix(.35278 0 0 -.35278 -8.5646 201.24)">
  <path d="m101.88 554.55 8.071-0.908 1.338 2.759-5.127 0.577 1.11 9.861-3.958 0.445zm-11.91 12.147-5.118-0.656 1.63-12.709 3.95 0.507-0.505 3.933 0.567 0.072 2.513-3.675 4.381 0.561-3.386 4.21c1.367 0.908 2.093 2.329 1.862 4.131-0.291 2.266-2.047 3.7-4.781 3.7-0.355 0-0.727-0.024-1.113-0.074m-0.8-3.017 0.841 0.108c1.254 0.161 1.866-0.39 1.994-1.385 0.129-1.014-0.324-1.7-1.578-1.862l-0.841-0.108zm26.083-11.107 4.415-1.689c4.189-1.601 7.534-0.172 8.919 3.45 1.384 3.623-0.156 6.918-4.344 8.519l-4.416 1.687zm5.555 0.953-0.809 0.31 2.516 6.581 0.809-0.308c1.86-0.711 2.317-2.277 1.526-4.347-0.612-1.602-1.571-2.482-2.826-2.481-0.379 0-0.785 0.08-1.216 0.245m-50.278 8.137c-3.598-1.541-5.154-5.034-3.558-8.76 1.596-3.725 5.198-5.007 8.796-3.467 3.597 1.542 5.153 5.035 3.558 8.76-1.152 2.689-3.35 4.106-5.837 4.106-0.958 0-1.959-0.21-2.959-0.639m0.12-7.184c-0.881 2.054-0.489 3.691 1.087 4.366 1.56 0.669 3.031-0.171 3.911-2.224 0.873-2.038 0.473-3.698-1.087-4.367-0.356-0.152-0.705-0.226-1.044-0.226-1.162 0-2.191 0.873-2.867 2.451m-15.526-1.918 3.573-6.162-5.864 4.178-2.199-1.906 3.298-6.4-5.602 4.404-2.919-2.528 10.578-7.793 2.853 2.471-2.988 5.936 5.436-3.814 2.827 2.449-6.205 11.58zm85.525-6.047c-2.739-2.915-2.322-6.871 0.529-9.551 1.06-0.995 2.118-1.538 3.302-1.795l2.17 2.308c-1.072 0.2-2.138 0.608-2.996 1.414-1.501 1.411-1.572 3.308-0.031 4.947 1.565 1.666 3.415 1.638 4.765 0.369 0.72-0.675 1.049-1.388 1.325-2.409l2.664 1.369c-0.255 1.119-0.995 2.456-2.093 3.488-1.347 1.266-3.097 1.986-4.863 1.986-1.689 0-3.392-0.658-4.772-2.126m-37.094-18.401c3.042-0.392 5.959-1.188 8.693-2.334v9.263c15.044-4.852 26.419-17.875 28.896-33.839l-9.144 1.448c0.625-2.567 0.956-5.249 0.956-8.008 0-0.315-5e-3 -0.629-0.014-0.942l17.268-2.735c0.086 1.214 0.13 2.441 0.13 3.677 0 26.775-20.58 48.744-46.785 50.949zm-55.477-33.47c0-1.236 0.044-2.463 0.13-3.677l17.267 2.735c-8e-3 0.313-0.013 0.627-0.013 0.942 0 2.759 0.331 5.441 0.956 8.008l-9.144-1.448c2.477 15.964 13.852 28.987 28.896 33.839v-9.263c2.733 1.146 5.649 1.942 8.693 2.334v17.479c-26.205-2.205-46.785-24.174-46.785-50.949m102.93 38.784c-2.881-1.795-2.982-4.45-1.241-7.242 1.786-2.866 4.195-3.915 7.076-2.121l6.937 4.324-2.079 3.336-6.953-4.331c-0.896-0.559-1.729-0.467-2.287 0.43-0.532 0.852-0.258 1.656 0.639 2.215l6.952 4.332-2.107 3.381zm-117.38-7.516-2.499-5.406 11.63-5.377 2.303 4.982c1.352 2.923 0.745 5.283-1.251 6.205-1.383 0.64-2.675 0.322-3.853-0.946 0.133 1.484-0.516 2.471-1.648 2.994-0.438 0.202-0.874 0.301-1.3 0.301-1.331 0-2.556-0.967-3.382-2.753m1.592-2.91 0.472 1.021c0.356 0.77 0.953 1.029 1.629 0.717 0.66-0.306 0.865-0.935 0.509-1.705l-0.473-1.022zm4.354-2.013 0.472 1.022c0.422 0.911 1.101 1.226 1.855 0.877 0.754-0.348 1.003-1.092 0.581-2.004l-0.473-1.022zm115.47-4.231 1.151-3.813 3.597 1.085 0.315-1.044c0.952-3.15 3.157-4.764 5.876-3.943 2.603 0.785 3.747 3.41 2.796 6.561l-1.466 4.857zm7.605-2.661-0.22 0.729 3.266 0.986 0.22-0.73c0.391-1.293-0.101-2.002-1.079-2.297-0.227-0.069-0.443-0.105-0.647-0.105-0.691 0-1.239 0.418-1.54 1.417m-134.8-5.75 8.076-1.367c1.042-0.177 1.604-0.798 1.429-1.841-0.169-0.99-0.907-1.409-1.949-1.233l-8.076 1.366-0.665-3.926 8.06-1.365c3.347-0.566 5.182 1.354 5.731 4.599 0.563 3.33-0.544 5.712-3.891 6.279l-8.059 1.364zm8.831-18.522-9.895-0.729 0.292-3.971 12.78 0.941-0.597 8.099-2.959 0.806zm121.84-4.081 2.902-1.293 0.316 3.936 1.759-1.462c1.367-1.152 2.679-2.127 4.112-2.242 2.641-0.211 4.059 1.655 4.259 4.141 0.131 1.64-0.288 3.342-0.93 4.644l-3.211 0.258c0.629-1.25 1.158-2.456 1.073-3.509-0.071-0.898-0.583-1.43-1.446-1.36-0.795 0.063-1.542 0.714-2.342 1.352l-5.698 4.541-0.069 5e-3zm-41.831-29.786-17.473 8.903-17.471-8.903c-11.5 5.202-20.267 15.38-23.555 27.788l-8.624-1.366c4.127-16.762 16.521-30.272 32.61-35.958l17.04 8.683 17.042-8.683c16.089 5.686 28.483 19.196 32.61 35.958l-8.625 1.366c-3.288-12.408-12.055-22.586-23.554-27.788m-79.719 24.091c0.842-0.692 1.579-1.564 1.941-2.685 0.634-1.96-0.22-3.654-2.362-4.347-2.175-0.702-3.781 0.216-4.351 1.979-0.303 0.938-0.247 1.721 4e-3 2.748l-2.995 0.088c-0.317-1.103-0.314-2.63 0.149-4.064 1.112-3.443 4.584-5.797 8.505-4.531 3.806 1.231 5.351 4.896 4.148 8.619-0.447 1.384-1.112 2.37-2.024 3.168zm118.99-3.647c-0.991-2.991 5e-3 -5.601 2.569-6.45 2.417-0.801 4.813 0.321 5.764 4.018l1.413-0.467-1.306-3.945 2.424-1.879 2.684 8.103-7.117 2.357c-0.237-2.037-0.873-5.056-2.664-4.462-0.855 0.283-1.075 1.159-0.705 2.276 0.31 0.937 1.031 1.848 1.736 2.545l-2.413 1.857c-0.995-0.966-1.901-2.49-2.385-3.953m-37.588-14.479 0.29-1.357-0.974 0.989-0.629-0.338 0.755-1.919 0.475 0.255-0.502 1.199 0.969-0.947 0.468 0.252-0.257 1.331 0.711-1.086 0.503 0.271-1.187 1.685zm-3.135-1.688 0.221-0.412 0.531 0.286 0.749-1.39 0.524 0.282-0.749 1.389 0.531 0.287-0.222 0.412zm-6.653-25.414-4.081-11.2h3.433l0.437 1.505h3.938l0.456-1.505h3.52l-4.079 11.2zm1.758-2.878 1.393-4.665h-2.741zm-12.636 2.878v-11.2h3.486v4.045h2.51l0.891 2.448h-3.401v2.267h4.225l0.889 2.44zm-5.884-11.2h3.486v11.2h-3.486zm-9.667 11.2v-11.2h3.485v4.045h2.51l0.891 2.448h-3.401v2.267h4.225l0.89 2.44z" fill="url(#gradient)"/>
 </g>
</svg>
